<svg width="48" height="48" viewBox="0 0 48 48" fill="none" xmlns="http://www.w3.org/2000/svg">
<mask id="mask0_46_24" style="mask-type:alpha" maskUnits="userSpaceOnUse" x="0" y="0" width="48" height="48">
<rect width="48" height="48" fill="#D9D9D9"/>
</mask>
<g mask="url(#mask0_46_24)">
<path d="M19.4 40.0004C18.6222 38.7448 17.9695 37.4476 17.4417 36.1087C16.9139 34.7698 16.4778 33.2893 16.1334 31.667H9.1333C10.2333 33.7782 11.6472 35.5393 13.375 36.9504C15.1028 38.3615 17.1111 39.3782 19.4 40.0004ZM7.9 28.3337H15.5C15.4 27.5782 15.3306 26.8754 15.2917 26.2254C15.2528 25.5754 15.2334 24.8559 15.2334 24.067C15.2334 23.367 15.2472 22.6698 15.275 21.9754C15.3028 21.2809 15.3667 20.5226 15.4667 19.7004H7.9C7.68887 20.4559 7.54163 21.1698 7.4583 21.842C7.37497 22.5143 7.3333 23.2559 7.3333 24.067C7.3333 24.8782 7.37497 25.6032 7.4583 26.242C7.54163 26.8809 7.68887 27.5782 7.9 28.3337ZM9.1333 16.3671H16.1C16.4667 14.7226 16.925 13.2143 17.475 11.842C18.025 10.4698 18.6778 9.17812 19.4334 7.96702C16.9222 8.81145 14.8694 9.88923 13.275 11.2004C11.6805 12.5115 10.3 14.2337 9.1333 16.3671ZM19.5333 16.3671H28.5C28.0333 14.4559 27.4333 12.767 26.7 11.3004C25.9667 9.8337 25.0667 8.50037 24 7.30037C22.9333 8.52257 22.0333 9.88367 21.3 11.3837C20.5667 12.8837 19.9778 14.5448 19.5333 16.3671ZM31.9334 16.3671H38.8667C37.7667 14.367 36.3361 12.6504 34.575 11.217C32.8139 9.78368 30.8222 8.71145 28.6 8.00032C29.3555 9.21145 30.0028 10.5031 30.5417 11.8754C31.0806 13.2476 31.5445 14.7448 31.9334 16.3671ZM24 44.0004C21.2222 44.0004 18.6167 43.4865 16.1834 42.4587C13.75 41.4309 11.6306 40.0143 9.825 38.2087C8.01943 36.4032 6.59722 34.2893 5.55835 31.867C4.51945 29.4448 4 26.8448 4 24.067C4 21.2782 4.51945 18.6643 5.55835 16.2254C6.59722 13.7865 8.01943 11.6642 9.825 9.85872C11.6306 8.05315 13.75 6.62537 16.1834 5.57537C18.6167 4.52537 21.2222 4.00037 24 4.00037C26.7889 4.00037 29.3972 4.52537 31.825 5.57537C34.2528 6.62537 36.3694 8.05315 38.175 9.85872C39.9806 11.6642 41.4028 13.7865 42.4417 16.2254C43.4806 18.6643 44 21.2782 44 24.067C44 24.5559 43.9861 25.0448 43.9584 25.5337C43.9306 26.0226 43.8778 26.5115 43.8 27.0004H40.3834C40.4945 26.5115 40.5695 26.0421 40.6084 25.5921C40.6473 25.1421 40.6667 24.6337 40.6667 24.067C40.6667 23.2559 40.625 22.5143 40.5417 21.842C40.4584 21.1698 40.3111 20.4559 40.1 19.7004H32.5C32.6 20.5893 32.675 21.3587 32.725 22.0087C32.775 22.6587 32.8 23.3448 32.8 24.067C32.8 24.5004 32.7945 24.9309 32.7834 25.3587C32.7722 25.7865 32.7389 26.3337 32.6834 27.0004H29.3167C29.3722 26.4226 29.4111 25.9143 29.4334 25.4754C29.4556 25.0365 29.4667 24.567 29.4667 24.067C29.4667 23.367 29.4473 22.692 29.4084 22.042C29.3695 21.392 29.2889 20.6115 29.1667 19.7004H18.8667C18.7444 20.6115 18.6639 21.392 18.625 22.042C18.5861 22.692 18.5667 23.367 18.5667 24.067C18.5667 24.7448 18.5861 25.3976 18.625 26.0254C18.6639 26.6531 18.7444 27.4226 18.8667 28.3337H27.0001V31.667H19.5333C20.1111 33.8226 20.75 35.6059 21.45 37.0171C22.15 38.4282 23 39.6337 24 40.6337C24.5889 39.9671 25.1334 39.2421 25.6334 38.4587C26.1334 37.6754 26.5889 36.867 27.0001 36.0337V43.767C26.5112 43.8448 26.0195 43.9032 25.525 43.942C25.0306 43.9809 24.5222 44.0004 24 44.0004ZM39.9 42.2837L33.6667 36.0504V40.967H30.3334V30.3337H40.9667V33.667H36L42.2333 39.9004L39.9 42.2837Z" fill="#AEE1E7"/>
</g>
</svg>
