<svg width="48" height="48" viewBox="0 0 48 48" fill="none" xmlns="http://www.w3.org/2000/svg">
<mask id="mask0_159_326" style="mask-type:alpha" maskUnits="userSpaceOnUse" x="0" y="0" width="48" height="48">
<rect width="48" height="48" fill="#D9D9D9"/>
</mask>
<g mask="url(#mask0_159_326)">
<path d="M19.3998 40.0003C18.622 38.7447 17.9692 37.4475 17.4414 36.1086C16.9136 34.7697 16.4775 33.2891 16.1331 31.6669H9.13306C10.2331 33.778 11.647 35.5391 13.3748 36.9502C15.1025 38.3614 17.1109 39.3781 19.3998 40.0003ZM7.89976 28.3336H15.4998C15.3998 27.578 15.3303 26.8752 15.2914 26.2252C15.2525 25.5752 15.2331 24.8558 15.2331 24.0669C15.2331 23.3669 15.247 22.6697 15.2748 21.9752C15.3025 21.2808 15.3664 20.5225 15.4664 19.7002H7.89976C7.68862 20.4558 7.54139 21.1697 7.45806 21.8419C7.37472 22.5141 7.33306 23.2558 7.33306 24.0669C7.33306 24.878 7.37472 25.603 7.45806 26.2419C7.54139 26.8808 7.68862 27.578 7.89976 28.3336ZM9.13306 16.3669H16.0998C16.4664 14.7225 16.9248 13.2141 17.4748 11.8419C18.0248 10.4697 18.6775 9.17799 19.4331 7.96689C16.922 8.81133 14.8692 9.88911 13.2748 11.2002C11.6803 12.5113 10.2997 14.2336 9.13306 16.3669ZM19.5331 16.3669H28.4998C28.0331 14.4558 27.4331 12.7669 26.6998 11.3002C25.9664 9.83358 25.0664 8.50024 23.9998 7.30024C22.9331 8.52244 22.0331 9.88354 21.2998 11.3835C20.5664 12.8836 19.9775 14.5447 19.5331 16.3669ZM31.9331 16.3669H38.8665C37.7665 14.3669 36.3359 12.6502 34.5748 11.2169C32.8137 9.78356 30.822 8.71133 28.5998 8.00019C29.3553 9.21133 30.0025 10.503 30.5414 11.8752C31.0803 13.2475 31.5442 14.7447 31.9331 16.3669ZM23.9998 44.0002C21.222 44.0002 18.6164 43.4864 16.1831 42.4586C13.7498 41.4308 11.6303 40.0141 9.82476 38.2086C8.01919 36.403 6.59697 34.2891 5.55811 31.8669C4.51921 29.4447 3.99976 26.8447 3.99976 24.0669C3.99976 21.278 4.51921 18.6641 5.55811 16.2252C6.59697 13.7863 8.01919 11.6641 9.82476 9.85859C11.6303 8.05303 13.7498 6.62524 16.1831 5.57524C18.6164 4.52524 21.222 4.00024 23.9998 4.00024C26.7887 4.00024 29.397 4.52524 31.8248 5.57524C34.2525 6.62524 36.3692 8.05303 38.1748 9.85859C39.9803 11.6641 41.4025 13.7863 42.4414 16.2252C43.4803 18.6641 43.9998 21.278 43.9998 24.0669C43.9998 24.5558 43.9859 25.0447 43.9581 25.5336C43.9303 26.0225 43.8775 26.5114 43.7998 27.0003H40.3831C40.4942 26.5114 40.5692 26.0419 40.6081 25.5919C40.647 25.1419 40.6665 24.6336 40.6665 24.0669C40.6665 23.2558 40.6248 22.5141 40.5415 21.8419C40.4581 21.1697 40.3109 20.4558 40.0998 19.7002H32.4998C32.5998 20.5891 32.6748 21.3586 32.7248 22.0086C32.7748 22.6586 32.7998 23.3447 32.7998 24.0669C32.7998 24.5002 32.7942 24.9308 32.7831 25.3586C32.772 25.7864 32.7386 26.3336 32.6831 27.0003H29.3165C29.372 26.4225 29.4109 25.9141 29.4331 25.4752C29.4553 25.0363 29.4665 24.5669 29.4665 24.0669C29.4665 23.3669 29.447 22.6919 29.4081 22.0419C29.3692 21.3919 29.2887 20.6113 29.1665 19.7002H18.8664C18.7442 20.6113 18.6636 21.3919 18.6248 22.0419C18.5859 22.6919 18.5664 23.3669 18.5664 24.0669C18.5664 24.7447 18.5859 25.3975 18.6248 26.0252C18.6636 26.653 18.7442 27.4225 18.8664 28.3336H26.9998V31.6669H19.5331C20.1109 33.8225 20.7498 35.6058 21.4498 37.0169C22.1498 38.428 22.9998 39.6336 23.9998 40.6336C24.5887 39.9669 25.1331 39.2419 25.6331 38.4586C26.1331 37.6753 26.5887 36.8669 26.9998 36.0335V43.7669C26.5109 43.8447 26.0192 43.903 25.5248 43.9419C25.0303 43.9808 24.522 44.0002 23.9998 44.0002ZM39.8998 42.2835L33.6664 36.0502V40.9669H30.3331V30.3336H40.9664V33.6669H35.9998L42.2331 39.9002L39.8998 42.2835Z" fill="#EA7360"/>
</g>
</svg>
