<svg width="75" height="75" viewBox="0 0 75 75" fill="none" xmlns="http://www.w3.org/2000/svg">
<path d="M27.5 52.5L33.3333 46.5625L24.2708 37.5L33.3333 28.4375L27.5 22.5L12.5 37.5L27.5 52.5ZM47.5 52.5L62.5 37.5L47.5 22.5L41.6667 28.4375L50.7292 37.5L41.6667 46.5625L47.5 52.5ZM8.33333 75C6.04167 75 4.07986 74.184 2.44792 72.5521C0.815972 70.9201 0 68.9583 0 66.6667V8.33333C0 6.04167 0.815972 4.07986 2.44792 2.44792C4.07986 0.815972 6.04167 0 8.33333 0H66.6667C68.9583 0 70.9201 0.815972 72.5521 2.44792C74.184 4.07986 75 6.04167 75 8.33333V66.6667C75 68.9583 74.184 70.9201 72.5521 72.5521C70.9201 74.184 68.9583 75 66.6667 75H8.33333ZM8.33333 66.6667H66.6667V8.33333H8.33333V66.6667Z" fill="#68878B"/>
</svg>
