<svg width="60" height="60" viewBox="0 0 60 60" fill="none" xmlns="http://www.w3.org/2000/svg">
<path d="M22 42L26.6667 37.25L19.4167 30L26.6667 22.75L22 18L10 30L22 42ZM38 42L50 30L38 18L33.3333 22.75L40.5833 30L33.3333 37.25L38 42ZM6.66667 60C4.83333 60 3.26389 59.3472 1.95833 58.0417C0.652778 56.7361 0 55.1667 0 53.3333V6.66667C0 4.83333 0.652778 3.26389 1.95833 1.95833C3.26389 0.652778 4.83333 0 6.66667 0H53.3333C55.1667 0 56.7361 0.652778 58.0417 1.95833C59.3472 3.26389 60 4.83333 60 6.66667V53.3333C60 55.1667 59.3472 56.7361 58.0417 58.0417C56.7361 59.3472 55.1667 60 53.3333 60H6.66667ZM6.66667 53.3333H53.3333V6.66667H6.66667V53.3333Z" fill="#AEE1E7"/>
</svg>
