<svg width="75" height="75" viewBox="0 0 75 75" fill="none" xmlns="http://www.w3.org/2000/svg">
<path d="M11.25 75C8.125 75 5.46875 73.9063 3.28125 71.7188C1.09375 69.5312 0 66.875 0 63.75V11.25C0 8.125 1.09375 5.46875 3.28125 3.28125C5.46875 1.09375 8.125 0 11.25 0H63.75C66.875 0 69.5312 1.09375 71.7188 3.28125C73.9063 5.46875 75 8.125 75 11.25V63.75C75 66.875 73.9063 69.5312 71.7188 71.7188C69.5312 73.9063 66.875 75 63.75 75H11.25ZM11.25 67.5H63.75C64.8125 67.5 65.7031 67.1406 66.4219 66.4219C67.1406 65.7031 67.5 64.8125 67.5 63.75V11.25C67.5 10.1875 67.1406 9.29688 66.4219 8.57813C65.7031 7.85938 64.8125 7.5 63.75 7.5H11.25C10.1875 7.5 9.29688 7.85938 8.57813 8.57813C7.85938 9.29688 7.5 10.1875 7.5 11.25V63.75C7.5 64.8125 7.85938 65.7031 8.57813 66.4219C9.29688 67.1406 10.1875 67.5 11.25 67.5ZM15 60L30 45L36.75 51.6563L45 41.25L60 60H15ZM22.5 30C20.4375 30 18.6719 29.2656 17.2031 27.7969C15.7344 26.3281 15 24.5625 15 22.5C15 20.4375 15.7344 18.6719 17.2031 17.2031C18.6719 15.7344 20.4375 15 22.5 15C24.5625 15 26.3281 15.7344 27.7969 17.2031C29.2656 18.6719 30 20.4375 30 22.5C30 24.5625 29.2656 26.3281 27.7969 27.7969C26.3281 29.2656 24.5625 30 22.5 30Z" fill="#68878B"/>
</svg>
