<svg width="60" height="60" viewBox="0 0 60 60" fill="none" xmlns="http://www.w3.org/2000/svg">
<path d="M9 60C6.5 60 4.375 59.125 2.625 57.375C0.875 55.625 0 53.5 0 51V9C0 6.5 0.875 4.375 2.625 2.625C4.375 0.875 6.5 0 9 0H51C53.5 0 55.625 0.875 57.375 2.625C59.125 4.375 60 6.5 60 9V51C60 53.5 59.125 55.625 57.375 57.375C55.625 59.125 53.5 60 51 60H9ZM9 54H51C51.85 54 52.5625 53.7125 53.1375 53.1375C53.7125 52.5625 54 51.85 54 51V9C54 8.15 53.7125 7.4375 53.1375 6.8625C52.5625 6.2875 51.85 6 51 6H9C8.15 6 7.4375 6.2875 6.8625 6.8625C6.2875 7.4375 6 8.15 6 9V51C6 51.85 6.2875 52.5625 6.8625 53.1375C7.4375 53.7125 8.15 54 9 54ZM12 48L24 36L29.4 41.325L36 33L48 48H12ZM18 24C16.35 24 14.9375 23.4125 13.7625 22.2375C12.5875 21.0625 12 19.65 12 18C12 16.35 12.5875 14.9375 13.7625 13.7625C14.9375 12.5875 16.35 12 18 12C19.65 12 21.0625 12.5875 22.2375 13.7625C23.4125 14.9375 24 16.35 24 18C24 19.65 23.4125 21.0625 22.2375 22.2375C21.0625 23.4125 19.65 24 18 24Z" fill="#AEE1E7"/>
</svg>
