<svg width="49" height="48" viewBox="0 0 49 48" fill="none" xmlns="http://www.w3.org/2000/svg">
<path d="M7.52365 0C3.7415 0 0.666504 3.075 0.666504 6.85714V41.1429C0.666504 44.925 3.7415 48 7.52365 48H41.8094C45.5915 48 48.6665 44.925 48.6665 41.1429V6.85714C48.6665 3.075 45.5915 0 41.8094 0H7.52365ZM24.0236 25.6821L7.54507 15.0429C7.73793 13.3286 9.18436 12 10.9522 12H38.3808C40.1486 12 41.5951 13.3286 41.7879 15.0429L25.3094 25.6821C25.1165 25.8107 24.8915 25.875 24.6665 25.875C24.4415 25.875 24.2165 25.8107 24.0236 25.6821ZM27.1736 28.5643L41.8094 19.1143V32.5714C41.8094 34.4679 40.2772 36 38.3808 36H10.9522C9.05579 36 7.52365 34.4679 7.52365 32.5714V19.1143L22.1594 28.5643C22.9094 29.0464 23.7772 29.3036 24.6665 29.3036C25.5558 29.3036 26.4236 29.0464 27.1736 28.5643Z" fill="#AEE1E7"/>
</svg>
