<svg width="48" height="48" viewBox="0 0 48 48" fill="none" xmlns="http://www.w3.org/2000/svg">
<path d="M10.0957 11.4838C10.0957 7.3506 13.4463 4 17.5795 4H30.4208C34.554 4 37.9046 7.3506 37.9046 11.4838C37.9046 14.1009 36.5612 16.4044 34.5262 17.742C36.5612 19.0796 37.9046 21.383 37.9046 24.0002C37.9046 28.1334 34.554 31.484 30.4208 31.484H30.2583C28.3206 31.484 26.5549 30.7476 25.2259 29.5394V36.4349C25.2259 40.6232 21.7877 44 17.6198 44C13.497 44 10.0957 40.6596 10.0957 36.5162C10.0957 33.8991 11.439 31.5959 13.4738 30.2582C11.439 28.9205 10.0957 26.6172 10.0957 24.0002C10.0957 21.383 11.4391 19.0796 13.474 17.742C11.4391 16.4044 10.0957 14.1009 10.0957 11.4838ZM22.7745 18.9677H17.5795C14.8002 18.9677 12.5471 21.2209 12.5471 24.0002C12.5471 26.7688 14.7828 29.0152 17.5473 29.0325C17.558 29.0324 17.5687 29.0324 17.5795 29.0324H22.7745V18.9677ZM25.2259 24.0002C25.2259 26.7795 27.4789 29.0326 30.2583 29.0326H30.4208C33.2002 29.0326 35.4532 26.7795 35.4532 24.0002C35.4532 21.2209 33.2002 18.9677 30.4208 18.9677H30.2583C27.4789 18.9677 25.2259 21.2209 25.2259 24.0002ZM17.5795 31.484C17.5687 31.484 17.558 31.4839 17.5473 31.4839C14.7828 31.5012 12.5471 33.7476 12.5471 36.5162C12.5471 39.2853 14.8303 41.5486 17.6198 41.5486C20.4544 41.5486 22.7745 39.2489 22.7745 36.4349V31.484H17.5795ZM17.5795 6.45139C14.8002 6.45139 12.5471 8.70448 12.5471 11.4838C12.5471 14.2631 14.8002 16.5162 17.5795 16.5162H22.7745V6.45139H17.5795ZM25.2259 16.5162H30.4208C33.2002 16.5162 35.4532 14.2631 35.4532 11.4838C35.4532 8.70448 33.2002 6.45139 30.4208 6.45139H25.2259V16.5162Z" fill="#AEE1E7"/>
</svg>
