<svg width="49" height="48" viewBox="0 0 49 48" fill="none" xmlns="http://www.w3.org/2000/svg">
<path d="M24.3335 18.285C23.2033 18.2854 22.0985 18.621 21.159 19.2492C20.2195 19.8774 19.4873 20.7701 19.0551 21.8144C18.6228 22.8588 18.51 24.0078 18.7307 25.1163C18.9515 26.2247 19.4959 27.2428 20.2953 28.0419C21.0946 28.8409 22.1129 29.385 23.2215 29.6053C24.33 29.8257 25.479 29.7124 26.5232 29.2798C27.5673 28.8472 28.4598 28.1146 29.0876 27.1749C29.7155 26.2351 30.0506 25.1302 30.0506 24C30.0495 22.4843 29.4467 21.031 28.3747 19.9594C27.3028 18.8878 25.8492 18.2856 24.3335 18.285ZM37.6953 13.8921C37.4043 13.1548 36.965 12.4852 36.4045 11.9247C35.844 11.3642 35.1744 10.9249 34.4371 10.6339C32.1871 9.74571 26.8299 9.945 24.3335 9.945C21.8371 9.945 16.4853 9.73821 14.2289 10.6339C13.4915 10.9249 12.8219 11.3642 12.2614 11.9247C11.7009 12.4852 11.2616 13.1548 10.9706 13.8921C10.0835 16.1421 10.2817 21.5046 10.2817 23.9989C10.2817 26.4932 10.0835 31.8493 10.9749 34.1068C11.2659 34.8441 11.7052 35.5138 12.2657 36.0742C12.8262 36.6347 13.4958 37.0741 14.2331 37.365C16.4831 38.2532 21.8403 38.0539 24.3378 38.0539C26.8353 38.0539 32.1849 38.2607 34.4414 37.365C35.1787 37.0741 35.8483 36.6347 36.4088 36.0742C36.9693 35.5138 37.4086 34.8441 37.6996 34.1068C38.5942 31.8568 38.3885 26.4943 38.3885 24C38.3885 21.5057 38.5942 16.1507 37.6996 13.8932L37.6953 13.8921ZM24.3335 32.7857C22.5958 32.7857 20.8972 32.2704 19.4524 31.3051C18.0076 30.3397 16.8815 28.9675 16.2166 27.3621C15.5516 25.7568 15.3776 23.9903 15.7166 22.286C16.0556 20.5817 16.8924 19.0163 18.1211 17.7876C19.3498 16.5589 20.9152 15.7221 22.6195 15.3831C24.3237 15.0441 26.0903 15.2181 27.6956 15.8831C29.301 16.548 30.6732 17.6741 31.6386 19.1189C32.6039 20.5637 33.1192 22.2624 33.1192 24C33.1206 25.1542 32.8943 26.2972 32.4533 27.3638C32.0123 28.4304 31.3652 29.3995 30.5491 30.2156C29.733 31.0317 28.7639 31.6788 27.6973 32.1198C26.6307 32.5608 25.4876 32.7871 24.3335 32.7857ZM33.4814 16.8964C33.0757 16.8966 32.6791 16.7765 32.3417 16.5513C32.0044 16.3261 31.7414 16.0059 31.586 15.6312C31.4306 15.2565 31.3898 14.8442 31.4688 14.4463C31.5478 14.0484 31.7431 13.6829 32.0298 13.396C32.3166 13.1091 32.682 12.9137 33.0798 12.8345C33.4776 12.7553 33.89 12.7958 34.2648 12.951C34.6396 13.1062 34.9599 13.369 35.1853 13.7063C35.4107 14.0435 35.531 14.4401 35.531 14.8457C35.5321 15.1151 35.4801 15.382 35.3778 15.6312C35.2755 15.8804 35.1251 16.107 34.935 16.2979C34.745 16.4888 34.5191 16.6404 34.2704 16.7438C34.0217 16.8473 33.755 16.9006 33.4856 16.9007L33.4814 16.8964ZM43.1906 0H5.47635C4.11238 0 2.80428 0.541835 1.8398 1.50631C0.875331 2.47078 0.333496 3.77889 0.333496 5.14286L0.333496 42.8571C0.333496 44.2211 0.875331 45.5292 1.8398 46.4937C2.80428 47.4582 4.11238 48 5.47635 48H43.1906C44.5546 48 45.8627 47.4582 46.8272 46.4937C47.7917 45.5292 48.3335 44.2211 48.3335 42.8571V5.14286C48.3335 3.77889 47.7917 2.47078 46.8272 1.50631C45.8627 0.541835 44.5546 0 43.1906 0ZM41.3564 31.0714C41.2181 33.8175 40.5914 36.2507 38.5867 38.25C36.5821 40.2493 34.151 40.8889 31.4081 41.0196C28.5785 41.1793 20.0949 41.1793 17.2653 41.0196C14.5192 40.8814 12.0946 40.2536 10.0867 38.25C8.07885 36.2464 7.44778 33.8121 7.31707 31.0714C7.15742 28.2407 7.15742 19.7561 7.31707 16.9286C7.45528 14.1825 8.07457 11.7493 10.0867 9.75C12.0989 7.75071 14.5299 7.11857 17.2653 6.98786C20.0949 6.82821 28.5785 6.82821 31.4081 6.98786C34.1542 7.12607 36.5864 7.75393 38.5867 9.7575C40.5871 11.7611 41.2256 14.1954 41.3564 16.9414C41.516 19.7614 41.516 28.2386 41.3564 31.0714Z" fill="#AEE1E7"/>
</svg>
