<svg width="48" height="48" viewBox="0 0 48 48" fill="none" xmlns="http://www.w3.org/2000/svg">
<path d="M41.5737 14.2041C41.5868 14.2518 41.5934 14.301 41.5936 14.3504V22.0307C41.5936 22.1292 41.5672 22.2261 41.5172 22.3114C41.4672 22.3967 41.3953 22.4674 41.3087 22.5165L34.7827 26.2278V33.584C34.7827 33.7842 34.675 33.969 34.4993 34.0698L20.8769 41.8159C20.8457 41.8334 20.8117 41.8446 20.7777 41.8565C20.7649 41.8607 20.7529 41.8684 20.7394 41.8719C20.6442 41.8966 20.5441 41.8966 20.4489 41.8719C20.4333 41.8677 20.4191 41.8593 20.4042 41.8537C20.373 41.8425 20.3404 41.8327 20.3107 41.8159L6.69113 34.0698C6.60461 34.0207 6.53272 33.9499 6.4827 33.8646C6.43269 33.7794 6.40632 33.6826 6.40625 33.584V10.5431C6.40625 10.4927 6.41334 10.4437 6.42609 10.3961C6.43034 10.38 6.44027 10.3653 6.44593 10.3492C6.45656 10.3198 6.46649 10.2897 6.48208 10.2624C6.49271 10.2442 6.5083 10.2295 6.52105 10.2127C6.53735 10.1903 6.55223 10.1672 6.57137 10.1476C6.58766 10.1315 6.60892 10.1196 6.62735 10.1056C6.6479 10.0888 6.66632 10.0706 6.68971 10.0573H6.69042L13.5005 6.18431C13.5868 6.13529 13.6845 6.1095 13.784 6.1095C13.8835 6.1095 13.9812 6.13529 14.0675 6.18431L20.8776 10.0573H20.879C20.9017 10.0713 20.9208 10.0888 20.9414 10.1049C20.9598 10.1189 20.9803 10.1315 20.9966 10.1469C21.0165 10.1672 21.0307 10.1903 21.0477 10.2127C21.0597 10.2295 21.076 10.2442 21.0859 10.2624C21.1022 10.2904 21.1114 10.3198 21.1228 10.3492C21.1285 10.3653 21.1384 10.38 21.1426 10.3968C21.1557 10.4445 21.1623 10.4937 21.1625 10.5431V24.9342L26.8373 21.7066V14.3497C26.8373 14.3007 26.8444 14.251 26.8572 14.2041C26.8621 14.1873 26.8714 14.1726 26.877 14.1565C26.8884 14.1271 26.8983 14.097 26.9139 14.0697C26.9245 14.0515 26.9401 14.0368 26.9521 14.02C26.9692 13.9976 26.9833 13.9745 27.0032 13.9549C27.0195 13.9388 27.04 13.9269 27.0584 13.9129C27.0797 13.8961 27.0981 13.8779 27.1208 13.8646H27.1215L33.9323 9.99155C34.0186 9.94247 34.1163 9.91663 34.2158 9.91663C34.3153 9.91663 34.4131 9.94247 34.4993 9.99155L41.3094 13.8646C41.3335 13.8786 41.3519 13.8961 41.3732 13.9122C41.3909 13.9262 41.4114 13.9388 41.4277 13.9542C41.4476 13.9745 41.4618 13.9976 41.4788 14.02C41.4915 14.0368 41.5071 14.0515 41.517 14.0697C41.5333 14.097 41.5425 14.1271 41.5539 14.1565C41.5603 14.1726 41.5695 14.1873 41.5737 14.2041V14.2041ZM40.4583 21.7066V15.3199L38.0751 16.675L34.7827 18.5475V24.9342L40.459 21.7066H40.4583ZM33.6482 33.2599V26.869L30.4096 28.696L21.1618 33.9095V40.3606L33.6482 33.2599ZM7.54151 11.5126V33.2599L20.0265 40.3599V33.9102L13.5041 30.2639L13.502 30.2625L13.4991 30.2611C13.4772 30.2485 13.4587 30.2303 13.4382 30.2149C13.4205 30.2009 13.3999 30.1897 13.3843 30.1743L13.3829 30.1722C13.3645 30.1547 13.3517 30.133 13.3361 30.1134C13.322 30.0945 13.305 30.0784 13.2936 30.0588L13.2929 30.0567C13.2802 30.0357 13.2724 30.0105 13.2631 29.9868C13.2539 29.9658 13.2419 29.9462 13.2362 29.9238V29.9231C13.2291 29.8965 13.2277 29.8685 13.2249 29.8412C13.222 29.8202 13.2164 29.7992 13.2164 29.7782V14.7403L9.9247 12.8671L7.54151 11.5133V11.5126ZM13.7847 7.31689L8.11055 10.5431L13.7833 13.7694L19.4568 10.5424L13.7833 7.31689H13.7847ZM16.7355 27.4514L20.0272 25.5796V11.5126L17.644 12.8678L14.3516 14.7403V28.8073L16.7355 27.4514ZM34.2158 11.1241L28.5424 14.3504L34.2158 17.5766L39.8886 14.3497L34.2158 11.1241ZM33.6482 18.5475L30.3558 16.675L27.9726 15.3199V21.7066L31.2643 23.5783L33.6482 24.9342V18.5475ZM20.5934 32.94L28.9151 28.2473L33.0749 25.9023L27.4057 22.6782L20.8783 26.3902L14.9292 29.7733L20.5934 32.94Z" fill="#AEE1E7"/>
</svg>
