<svg width="48" height="48" viewBox="0 0 48 48" fill="none" xmlns="http://www.w3.org/2000/svg">
<path d="M6.85714 0C3.075 0 0 3.075 0 6.85714V41.1429C0 44.925 3.075 48 6.85714 48H41.1429C44.925 48 48 44.925 48 41.1429V6.85714C48 3.075 44.925 0 41.1429 0H6.85714ZM23.3571 25.6821L6.87857 15.0429C7.07143 13.3286 8.51786 12 10.2857 12H37.7143C39.4821 12 40.9286 13.3286 41.1214 15.0429L24.6429 25.6821C24.45 25.8107 24.225 25.875 24 25.875C23.775 25.875 23.55 25.8107 23.3571 25.6821ZM26.5071 28.5643L41.1429 19.1143V32.5714C41.1429 34.4679 39.6107 36 37.7143 36H10.2857C8.38929 36 6.85714 34.4679 6.85714 32.5714V19.1143L21.4929 28.5643C22.2429 29.0464 23.1107 29.3036 24 29.3036C24.8893 29.3036 25.7571 29.0464 26.5071 28.5643Z" fill="#9DCBD0"/>
</svg>
