<svg width="32" height="32" viewBox="0 0 32 32" fill="none" xmlns="http://www.w3.org/2000/svg">
<path d="M3.55556 32C2.57778 32 1.74074 31.6519 1.04444 30.9556C0.348148 30.2593 0 29.4222 0 28.4444V3.55556C0 2.57778 0.348148 1.74074 1.04444 1.04444C1.74074 0.348148 2.57778 0 3.55556 0H16V3.55556H3.55556V28.4444H28.4444V16H32V28.4444C32 29.4222 31.6519 30.2593 30.9556 30.9556C30.2593 31.6519 29.4222 32 28.4444 32H3.55556ZM11.9111 22.5778L9.42222 20.0889L25.9556 3.55556H19.5556V0H32V12.4444H28.4444V6.04444L11.9111 22.5778Z" fill="#344345"/>
</svg>
