<svg width="48" height="48" viewBox="0 0 48 48" fill="none" xmlns="http://www.w3.org/2000/svg">
<path fill-rule="evenodd" clip-rule="evenodd" d="M24 11.85C18.6 11.85 15.225 14.55 13.875 19.95C15.9 17.25 18.2625 16.2375 20.9625 16.9125C22.503 17.2972 23.604 18.4155 24.8228 19.6522C26.808 21.6675 29.106 24 34.125 24C39.525 24 42.9 21.3 44.25 15.9C42.225 18.6 39.8625 19.6125 37.1625 18.9375C35.622 18.5527 34.521 17.4345 33.3022 16.1977C31.317 14.1825 29.019 11.85 24 11.85ZM13.875 24C8.475 24 5.1 26.7 3.75 32.1C5.775 29.4 8.1375 28.3875 10.8375 29.0625C12.378 29.448 13.479 30.5655 14.6978 31.8022C16.683 33.8175 18.981 36.15 24 36.15C29.4 36.15 32.775 33.45 34.125 28.05C32.1 30.75 29.7375 31.7625 27.0375 31.0875C25.497 30.7027 24.396 29.5845 23.1772 28.3477C21.192 26.3325 18.894 24 13.875 24Z" fill="#AEE1E7"/>
</svg>
